REM DIRINDEX 1\2\6,1\2\7,1\2\8,1\3\9,1\3\10,1\3\11,1\4\12,1\4\13,1\4\14,1\5\15,1\5\16,1\5\17,1\5\18
REM DIRNAME cjc019,folder01,folder02,folder03,folder04,folder05,folder06,folder07,folder08,folder09,folder10,folder11,folder12,folder13,folder14,folder15,folder16,folder17
TITLE ""
FILE "2Q_t_0898-0915.mp3" MP3
  TRACK 01 AUDIO
    TITLE "13:cjc019_3857"
    INDEX 01 00:00:00
  TRACK 02 AUDIO
    TITLE "0:"
    INDEX 01 00:01:03
  TRACK 03 AUDIO
    TITLE "14:cjc019_3858"
    INDEX 01 00:01:60
  TRACK 04 AUDIO
    TITLE "0:"
    INDEX 01 00:03:25
  TRACK 05 AUDIO
    TITLE "13:cjc019_3859"
    INDEX 01 00:04:07
  TRACK 06 AUDIO
    TITLE "0:"
    INDEX 01 00:04:70
  TRACK 07 AUDIO
    TITLE "14:cjc019_3860"
    INDEX 01 00:05:59
  TRACK 08 AUDIO
    TITLE "0:"
    INDEX 01 00:09:16
  TRACK 09 AUDIO
    TITLE "13:cjc019_3861"
    INDEX 01 00:09:73
  TRACK 10 AUDIO
    TITLE "0:"
    INDEX 01 00:11:15
  TRACK 11 AUDIO
    TITLE "14:cjc019_3862"
    INDEX 01 00:12:03
  TRACK 12 AUDIO
    TITLE "0:"
    INDEX 01 00:15:03
  TRACK 13 AUDIO
    TITLE "13:cjc019_3863"
    INDEX 01 00:15:54
  TRACK 14 AUDIO
    TITLE "0:"
    INDEX 01 00:16:63
  TRACK 15 AUDIO
    TITLE "14:cjc019_3864"
    INDEX 01 00:17:41
  TRACK 16 AUDIO
    TITLE "0:"
    INDEX 01 00:19:56
  TRACK 17 AUDIO
    TITLE "13:cjc019_3865"
    INDEX 01 00:20:32
  TRACK 18 AUDIO
    TITLE "0:"
    INDEX 01 00:21:45
  TRACK 19 AUDIO
    TITLE "14:cjc019_3866"
    INDEX 01 00:22:29
  TRACK 20 AUDIO
    TITLE "0:"
    INDEX 01 00:23:26
  TRACK 21 AUDIO
    TITLE "13:cjc019_3867"
    INDEX 01 00:24:00
  TRACK 22 AUDIO
    TITLE "0:"
    INDEX 01 00:25:11
  TRACK 23 AUDIO
    TITLE "14:cjc019_3868"
    INDEX 01 00:25:72
  TRACK 24 AUDIO
    TITLE "0:"
    INDEX 01 00:27:10
  TRACK 25 AUDIO
    TITLE "13:cjc019_3869"
    INDEX 01 00:27:61
  TRACK 26 AUDIO
    TITLE "0:"
    INDEX 01 00:28:74
  TRACK 27 AUDIO
    TITLE "14:cjc019_3870"
    INDEX 01 00:29:48
  TRACK 28 AUDIO
    TITLE "0:"
    INDEX 01 00:31:04
  TRACK 29 AUDIO
    TITLE "13:cjc019_3871"
    INDEX 01 00:31:63
  TRACK 30 AUDIO
    TITLE "0:"
    INDEX 01 00:33:03
  TRACK 31 AUDIO
    TITLE "14:cjc019_3872"
    INDEX 01 00:33:58
  TRACK 32 AUDIO
    TITLE "0:"
    INDEX 01 00:37:46
  TRACK 33 AUDIO
    TITLE "13:cjc019_3873"
    INDEX 01 00:38:20
  TRACK 34 AUDIO
    TITLE "0:"
    INDEX 01 00:39:31
  TRACK 35 AUDIO
    TITLE "14:cjc019_3874"
    INDEX 01 00:40:13
  TRACK 36 AUDIO
    TITLE "0:"
    INDEX 01 00:42:57
  TRACK 37 AUDIO
    TITLE "13:cjc019_3875"
    INDEX 01 00:43:33
  TRACK 38 AUDIO
    TITLE "0:"
    INDEX 01 00:44:60
  TRACK 39 AUDIO
    TITLE "14:cjc019_3876"
    INDEX 01 00:45:39
  TRACK 40 AUDIO
    TITLE "0:"
    INDEX 01 00:46:68
  TRACK 41 AUDIO
    TITLE "13:cjc019_3877"
    INDEX 01 00:47:42
  TRACK 42 AUDIO
    TITLE "0:"
    INDEX 01 00:48:40
  TRACK 43 AUDIO
    TITLE "14:cjc019_3878"
    INDEX 01 00:49:27
  TRACK 44 AUDIO
    TITLE "0:"
    INDEX 01 00:52:10
  TRACK 45 AUDIO
    TITLE "13:cjc019_3879"
    INDEX 01 00:52:63
  TRACK 46 AUDIO
    TITLE "0:"
    INDEX 01 00:54:07
  TRACK 47 AUDIO
    TITLE "14:cjc019_3880"
    INDEX 01 00:54:72
  TRACK 48 AUDIO
    TITLE "0:"
    INDEX 01 00:58:30
  TRACK 49 AUDIO
    TITLE "13:cjc019_3881"
    INDEX 01 00:59:12
  TRACK 50 AUDIO
    TITLE "0:"
    INDEX 01 01:00:41
  TRACK 51 AUDIO
    TITLE "14:cjc019_3882"
    INDEX 01 01:01:25
  TRACK 52 AUDIO
    TITLE "0:"
    INDEX 01 01:04:15
  TRACK 53 AUDIO
    TITLE "13:cjc019_3883"
    INDEX 01 01:04:66
  TRACK 54 AUDIO
    TITLE "0:"
    INDEX 01 01:06:22
  TRACK 55 AUDIO
    TITLE "14:cjc019_3884"
    INDEX 01 01:07:02
  TRACK 56 AUDIO
    TITLE "0:"
    INDEX 01 01:10:08
  TRACK 57 AUDIO
    TITLE "13:cjc019_3885"
    INDEX 01 01:10:69
  TRACK 58 AUDIO
    TITLE "0:"
    INDEX 01 01:12:17
  TRACK 59 AUDIO
    TITLE "14:cjc019_3886"
    INDEX 01 01:12:73
  TRACK 60 AUDIO
    TITLE "0:"
    INDEX 01 01:16:07
  TRACK 61 AUDIO
    TITLE "13:cjc019_3887"
    INDEX 01 01:16:65
  TRACK 62 AUDIO
    TITLE "0:"
    INDEX 01 01:17:73
  TRACK 63 AUDIO
    TITLE "14:cjc019_3888"
    INDEX 01 01:18:60
  TRACK 64 AUDIO
    TITLE "0:"
    INDEX 01 01:21:72
  TRACK 65 AUDIO
    TITLE "13:cjc019_3889"
    INDEX 01 01:22:50
  TRACK 66 AUDIO
    TITLE "0:"
    INDEX 01 01:23:65
  TRACK 67 AUDIO
    TITLE "14:cjc019_3890"
    INDEX 01 01:24:47
  TRACK 68 AUDIO
    TITLE "0:"
    INDEX 01 01:27:63
  TRACK 69 AUDIO
    TITLE "13:cjc019_3891"
    INDEX 01 01:28:41
  TRACK 70 AUDIO
    TITLE "0:"
    INDEX 01 01:29:62
  TRACK 71 AUDIO
    TITLE "14:cjc019_3892"
    INDEX 01 01:30:40
  TRACK 72 AUDIO
    TITLE "0:"
    INDEX 01 01:32:17
